:version 1.10
:name ASF
:units
  mass 1
  length 1
  angle deg
:documentation
  ASF file generated by Kaydara
:root
  axis xyz
  order  tx ty tz rx ry rz
  position 0 0 0
  orientation 0 0 0
:bonedata
  begin
    id 1
    name RightUpLegDummy
    direction -1 2.30186e-007 8.31532e-007
    length 4.04083
    axis 0 0 0 xyz
  end
  begin
    id 2
    name RightUpLeg
    direction -0.000919234 -0.999985 0.00544864
    length 17.4221
    axis -3.80308 -0.00076134 -0.0523649 xyz
    dof rx ry rz
  end
  begin
    id 3
    name RightLeg
    direction -0.000919271 -0.999984 -0.00555045
    length 17.1239
    axis 4.00314 0.0181274 -0.183583 xyz
    dof rx ry rz
  end
  begin
    id 4
    name RightFoot
    direction -2.57843e-005 -4.04509e-007 1
    length 6.72091
    axis 8.18909e-005 -0.122003 -0.403008 xyz
    dof rx ry rz
  end
  begin
    id 5
    name RightToes
    direction 0.00116825 -0.014069 0.9999
    length 3.85082
    axis 0.000514414 0.540638 -0.356797 xyz
    dof rx ry rz
  end
  begin
    id 6
    name SpineDummy
    direction 0.0168869 0.966876 -0.254689
    length 6.99894
    axis 0 0 0 xyz
  end
  begin
    id 7
    name Spine
    direction -0.0132008 0.999903 0.00446247
    length 11.1999
    axis -0.00148109 0.00725429 0.756411 xyz
    dof rx ry rz
  end
  begin
    id 8
    name Spine1
    direction 0 0 0
    length 0
    axis -0.000934958 0.0245693 1.46543 xyz
    dof rx ry rz
  end
  begin
    id 9
    name HEadDummy
    direction -0.0255732 0.999672 0.00128215
    length 3.43865
    axis -0.000934958 0.0245693 1.46543 xyz
  end
  begin
    id 10
    name HEad
    direction -0.0472656 0.980052 0.19304
    length 5.12695
    axis -0.000934954 0.0245693 1.46543 xyz
    dof rx ry rz
  end
  begin
    id 11
    name LeftShoulder1Dummy
    direction 0.953098 0.301717 -0.023914
    length 3.68488
    axis -0.000934958 0.0245693 1.46543 xyz
  end
  begin
    id 12
    name LeftShoulder1
    direction 0.962466 0.271167 0.0112566
    length 3.13809
    axis -0.000934958 0.0245693 1.46543 xyz
    dof rx ry rz
  end
  begin
    id 13
    name LeftArm
    direction 0.999943 0.00455037 -0.00961766
    length 11.3419
    axis -23.1648 0.685459 1.22814 xyz
    dof rx ry rz
  end
  begin
    id 14
    name LeftForeArm
    direction 0.999332 0.0131969 0.0340885
    length 8.70632
    axis -9.90633 0.618216 0.0826942 xyz
    dof rx ry rz
  end
  begin
    id 15
    name LeftHand
    direction 0.994373 -0.0366703 0.0993905
    length 5.32135
    axis 0.00675269 0.680415 0.445699 xyz
    dof rx ry rz
  end
  begin
    id 16
    name RightShoulderDummy
    direction -0.967298 0.252589 -0.0230903
    length 3.68488
    axis -0.000934958 0.0245693 1.46543 xyz
  end
  begin
    id 17
    name RightShoulder
    direction -0.975062 0.221602 0.0120823
    length 3.13809
    axis 0.216257 0.0246515 1.45863 xyz
    dof rx ry rz
  end
  begin
    id 18
    name RightArm
    direction -0.99886 -0.00851186 -0.0469687
    length 10.3947
    axis -23.196 0.23503 -0.532632 xyz
    dof rx ry rz
  end
  begin
    id 19
    name RightForeArm
    direction -0.99909 0.00114866 0.0426317
    length 8.68355
    axis -9.91764 -0.134943 0.610517 xyz
    dof rx ry rz
  end
  begin
    id 20
    name RightHand
    direction -0.992888 -0.0489538 0.10852
    length 5.28593
    axis -0.00275396 -0.197403 0.246414 xyz
    dof rx ry rz
  end
  begin
    id 21
    name LeftUpLegDummy
    direction 1 -2.30186e-007 -8.31532e-007
    length 4.04083
    axis 0 0 0 xyz
  end
  begin
    id 22
    name LeftUpLeg
    direction -0.000920097 -1 2.79241e-006
    length 17.4221
    axis -3.48782 0.00143434 -0.0532288 xyz
    dof rx ry rz
  end
  begin
    id 23
    name LeftLeg
    direction -0.000920097 -1 2.7912e-006
    length 17.1239
    axis 3.68162 -0.00806512 -0.0529896 xyz
    dof rx ry rz
  end
  begin
    id 24
    name LeftFoot
    direction -2.57845e-005 -3.987e-007 1
    length 6.72091
    axis 3.02372e-005 -0.00147829 -0.214229 xyz
    dof rx ry rz
  end
  begin
    id 25
    name LeftToes
    direction 0.00813577 -0.00488255 0.999955
    length 3.85048
    axis 3.89895e-005 -0.0014783 -0.214229 xyz
    dof rx ry rz
  end
:hierarchy
  begin
    root RightUpLegDummy SpineDummy LeftUpLegDummy
    RightUpLegDummy RightUpLeg
    RightUpLeg RightLeg
    RightLeg RightFoot
    RightFoot RightToes
    SpineDummy Spine
    Spine Spine1
    Spine1 HEadDummy LeftShoulder1Dummy RightShoulderDummy
    HEadDummy HEad
    LeftShoulder1Dummy LeftShoulder1
    LeftShoulder1 LeftArm
    LeftArm LeftForeArm
    LeftForeArm LeftHand
    RightShoulderDummy RightShoulder
    RightShoulder RightArm
    RightArm RightForeArm
    RightForeArm RightHand
    LeftUpLegDummy LeftUpLeg
    LeftUpLeg LeftLeg
    LeftLeg LeftFoot
    LeftFoot LeftToes
  end

:SAMPLES-PER-SECOND 30
:FULLY-SPECIFIED
:DEGREES
92
root  -17.6224 34.8261 -14.7911 -173.887 0.408859 179.171
RightUpLeg  -2.47527 -14.9834 -3.49469
RightLeg  1.32274 -3.02589 0.125321
RightFoot  6.77131 0.0422179 -0.199218
RightToes  -26.0513 -0.12073 -0.215824
Spine  -3.58687 0.509467 -0.930041
Spine1  -6.64238 1.29147 -1.06353
HEad  -64.421 -3.33619 8.24014
LeftShoulder1  -1.94126e-019 -3.10601e-018 -2.51263e-017
LeftArm  7.00493 -10.1482 -78.3311
LeftForeArm  162.59 -58.6692 -162.815
LeftHand  -1.06191 -0.484114 20.9826
RightShoulder  -4.96962e-017 0 -2.36833e-017
RightArm  10.2972 11.8471 80.4064
RightForeArm  -173.929 64.0982 161.267
RightHand  0.106176 -5.73389 -33.7191
LeftUpLeg  -3.79969 -0.748864 2.34654
LeftLeg  4.99788 15.052 0.34115
LeftFoot  5.4451 -0.0621509 1.64864
LeftToes  -20.6045 1.7763e-006 6.54387e-008
93
root  -17.6314 34.8264 -14.8123 -173.947 0.395309 179.169
RightUpLeg  -2.38974 -14.9993 -3.53703
RightLeg  1.35114 -3.00761 0.12308
RightFoot  6.73725 0.0410136 -0.182007
RightToes  -26.0247 -0.12073 -0.215753
Spine  -3.6009 0.531184 -1.03471
Spine1  -6.75395 1.35281 -1.21669
HEad  -63.4332 -3.03542 8.48822
LeftShoulder1  -1.94126e-019 -3.10601e-018 -2.51263e-017
LeftArm  17.1255 -12.3844 -80.7871
LeftForeArm  163.417 -60.5004 -161.67
LeftHand  -1.11559 -1.16708 19.7969
RightShoulder  -4.96962e-017 0 -2.36833e-017
RightArm  21.5655 13.4379 82.0835
RightForeArm  -174.582 67.1635 158.453
RightHand  0.038846 -5.49943 -34.9954
LeftUpLeg  -3.65942 -0.613871 2.3319
LeftLeg  4.88938 14.9277 0.310443
LeftFoot  5.47351 -0.0620653 1.65306
LeftToes  -20.6313 1.7763e-006 6.54387e-008
94
root  -17.6304 34.8207 -14.8137 -173.889 0.392014 179.168
RightUpLeg  -2.434 -15.0923 -3.52063
RightLeg  1.32482 -2.9496 0.122063
RightFoot  6.69348 0.0403844 -0.173013
RightToes  -25.956 -0.12073 -0.215698
Spine  -3.42816 0.641403 -1.0464
Spine1  -6.42686 1.57292 -1.26849
HEad  -63.9762 -2.83972 9.03398
LeftShoulder1  -1.94126e-019 -3.10601e-018 -2.51263e-017
LeftArm  14.3639 -10.9123 -81.4118
LeftForeArm  166.25 -58.3802 -163.322
LeftHand  -1.41011 -2.7431 20.204
RightShoulder  -4.96962e-017 0 -2.36833e-017
RightArm  18.6309 11.7148 82.3306
RightForeArm  -170.977 65.2673 160.6
RightHand  -0.0533609 -5.20588 -36.403
LeftUpLeg  -3.74402 -0.617208 2.33652
LeftLeg  4.95803 14.897 0.327467
LeftFoot  5.34997 -0.0593202 1.61603
LeftToes  -20.2557 1.7763e-006 6.54387e-008
95
root  -17.633 34.8173 -14.7969 -173.826 0.270447 179.168
RightUpLeg  -2.46634 -15.2837 -3.5107
RightLeg  1.24893 -2.85439 0.121899
RightFoot  6.75986 0.0403899 -0.173092
RightToes  -26.2104 -0.12073 -0.215661
Spine  -3.2961 0.655093 -1.01215
Spine1  -6.10105 1.58908 -1.21551
HEad  -65.618 -2.36808 9.34534
LeftShoulder1  -1.94126e-019 -3.10601e-018 -2.51263e-017
LeftArm  9.98894 -10.6673 -80.6527
LeftForeArm  167.78 -56.3981 -164.6
LeftHand  -1.29206 -1.85603 20.7419
RightShoulder  -4.96962e-017 0 -2.36833e-017
RightArm  11.6722 10.7554 82.108
RightForeArm  -164.964 62.8531 163.04
RightHand  -0.741934 -2.80453 -32.6733
LeftUpLeg  -3.89918 -0.83979 2.33426
LeftLeg  5.05122 15.0101 0.354033
LeftFoot  5.38784 -0.0600975 1.63365
LeftToes  -20.6412 1.7763e-006 6.54387e-008
96
root  -17.6359 34.8172 -14.7862 -173.678 0.0981445 179.168
RightUpLeg  -2.54897 -15.6571 -3.47799
RightLeg  1.1338 -2.65909 0.1189
RightFoot  6.81353 0.0395906 -0.161669
RightToes  -26.1769 -0.12073 -0.215643
Spine  -3.39431 0.631314 -0.95159
Spine1  -6.23716 1.53837 -1.11643
HEad  -66.4476 -1.96486 9.23517
LeftShoulder1  -1.94126e-019 -3.10601e-018 -2.51263e-017
LeftArm  3.67154 -9.57492 -79.1448
LeftForeArm  165.932 -54.9068 -165.242
LeftHand  -1.20938 -1.40413 20.6956
RightShoulder  -4.96962e-017 0 -2.36833e-017
RightArm  3.95107 9.46441 80.9794
RightForeArm  -166.822 60.8133 164.248
RightHand  -0.457945 -3.81899 -33.232
LeftUpLeg  -4.10322 -0.950994 2.34556
LeftLeg  5.07154 14.9521 0.357938
LeftFoot  5.41204 -0.0595037 1.62979
LeftToes  -20.6092 1.7763e-006 6.54387e-008
97
root  -17.6367 34.8185 -14.7779 -173.474 -0.055481 179.168
RightUpLeg  -2.66568 -15.8359 -3.42104
RightLeg  0.974367 -2.63862 0.125301
RightFoot  6.88578 0.0401211 -0.169251
RightToes  -26.1434 -0.12073 -0.215644
Spine  -3.50468 0.70065 -1.02694
Spine1  -6.43948 1.64226 -1.29025
HEad  -66.2935 -2.27561 9.39412
LeftShoulder1  -1.94126e-019 -3.10601e-018 -2.51263e-017
LeftArm  -0.839564 -9.00186 -77.6849
LeftForeArm  165.755 -54.2793 -165.549
LeftHand  -1.12654 -0.4435 22.3767
RightShoulder  -4.96962e-017 0 -2.36833e-017
RightArm  -2.72341 8.47535 79.7572
RightForeArm  -171.397 59.284 164.801
RightHand  0.330983 -6.41748 -35.607
LeftUpLeg  -4.34794 -0.874377 2.3639
LeftLeg  5.06642 14.7346 0.351534
LeftFoot  5.4131 -0.0574645 1.60328
LeftToes  -20.4907 1.7763e-006 6.54387e-008
98
root  -17.6424 34.8206 -14.7671 -173.41 -0.0686493 179.14
RightUpLeg  -2.74949 -15.7399 -3.43017
RightLeg  0.980363 -2.764 0.130956
RightFoot  6.90976 0.0410985 -0.183219
RightToes  -26.1846 -0.12073 -0.215666
Spine  -3.52865 0.549831 -0.943119
Spine1  -6.48314 1.36997 -1.13775
HEad  -65.483 -1.8813 9.21636
LeftShoulder1  -1.94126e-019 -3.10601e-018 -2.51263e-017
LeftArm  -2.83521 -9.15886 -77.1724
LeftForeArm  164.189 -54.4341 -165.348
LeftHand  -1.057 0.16934 23.4133
RightShoulder  -4.96962e-017 0 -2.36833e-017
RightArm  -3.11034 9.40397 79.6955
RightForeArm  -174.373 59.6788 164.317
RightHand  0.828041 -7.73961 -38.8362
LeftUpLeg  -4.37152 -0.97123 2.32468
LeftLeg  4.9482 14.8247 0.323394
LeftFoot  5.47537 -0.0588277 1.62946
LeftToes  -20.3881 1.7763e-006 6.54387e-008
99
root  -17.6492 34.8223 -14.7576 -173.366 0.13736 179.133
RightUpLeg  -2.88727 -15.4744 -3.4313
RightLeg  1.05818 -2.83359 0.130412
RightFoot  6.91366 0.0413952 -0.18746
RightToes  -26.2188 -0.12073 -0.21571
Spine  -3.54247 0.555266 -0.928333
Spine1  -6.52252 1.39168 -1.09487
HEad  -64.789 -2.0211 9.25018
LeftShoulder1  -1.94126e-019 -3.10601e-018 -2.51263e-017
LeftArm  1.49468 -10.4095 -78.0108
LeftForeArm  164.879 -55.6188 -164.784
LeftHand  -1.08759 -0.185968 22.5873
RightShoulder  -4.96962e-017 0 -2.36833e-017
RightArm  2.28281 11.0038 80.0756
RightForeArm  -172.148 60.8337 163.782
RightHand  0.45953 -6.76647 -36.8492
LeftUpLeg  -4.3114 -0.899492 2.29277
LeftLeg  4.77725 14.9563 0.282092
LeftFoot  5.51804 -0.0602968 1.65706
LeftToes  -20.2506 1.7763e-006 6.54387e-008
100
root  -17.6568 34.8243 -14.768 -173.321 0.428314 179.128
RightUpLeg  -2.98111 -15.325 -3.44171
RightLeg  1.07485 -2.70918 0.123912
RightFoot  6.93198 0.039936 -0.166606
RightToes  -26.2781 -0.12073 -0.215777
Spine  -3.51747 0.59184 -0.955135
Spine1  -6.51816 1.46867 -1.09693
HEad  -64.4287 -2.26278 9.26967
LeftShoulder1  -1.94126e-019 -3.10601e-018 -2.51263e-017
LeftArm  10.4815 -11.8633 -79.7387
LeftForeArm  165.422 -57.4746 -163.788
LeftHand  -1.2087 -1.51116 20.3748
RightShoulder  -4.96962e-017 0 -2.36833e-017
RightArm  12.2718 13.0208 81.1901
RightForeArm  -171.242 62.6164 162.649
RightHand  -0.0703094 -5.13807 -32.7432
LeftUpLeg  -4.1781 -0.680934 2.25789
LeftLeg  4.5342 15.028 0.220412
LeftFoot  5.62991 -0.0627623 1.69988
LeftToes  -20.4935 1.7763e-006 6.54387e-008
101
root  -17.6622 34.8251 -14.7955 -173.236 0.666092 179.12
RightUpLeg  -3.03585 -15.2729 -3.45074
RightLeg  1.0075 -2.5404 0.119182
RightFoot  6.94996 0.0380029 -0.138979
RightToes  -26.3265 -0.12073 -0.215869
Spine  -3.45266 0.56913 -0.992148
Spine1  -6.46789 1.41928 -1.11505
HEad  -64.425 -2.27119 9.20585
LeftShoulder1  -1.94126e-019 -3.10601e-018 -2.51263e-017
LeftArm  18.5143 -12.5245 -81.7098
LeftForeArm  162.877 -58.8238 -162.746
LeftHand  -0.903063 0.766676 22.5868
RightShoulder  -4.96962e-017 0 -2.36833e-017
RightArm  21.3113 14.618 82.4592
RightForeArm  -171.745 64.0462 161.532
RightHand  0.550637 -6.97279 -38.2526
LeftUpLeg  -4.13729 -0.397717 2.22672
LeftLeg  4.43778 14.9919 0.194959
LeftFoot  5.60757 -0.0622014 1.69536
LeftToes  -20.3367 1.7763e-006 6.54387e-008
102
root  -17.6615 34.8167 -14.7988 -173.178 0.76651 179.117
RightUpLeg  -3.06983 -15.1016 -3.4339
RightLeg  0.932613 -2.61838 0.126242
RightFoot  6.93632 0.0388901 -0.151658
RightToes  -26.335 -0.12073 -0.215985
Spine  -3.26056 0.546992 -0.970098
Spine1  -6.07802 1.35794 -1.08519
HEad  -65.8262 -2.28479 9.2819
LeftShoulder1  -1.94126e-019 -3.10601e-018 -2.51263e-017
LeftArm  13.9735 -9.81813 -81.5796
LeftForeArm  167.147 -56.803 -164.328
LeftHand  -1.28934 -2.40486 19.294
RightShoulder  -4.96962e-017 0 -2.36833e-017
RightArm  16.7703 13.0563 82.1393
RightForeArm  -165.782 61.8984 163.639
RightHand  -0.60679 -3.29302 -32.954
LeftUpLeg  -4.22587 -0.382069 2.21512
LeftLeg  4.54745 15.0914 0.224771
LeftFoot  5.5268 -0.0609556 1.67988
LeftToes  -20.4031 1.7763e-006 6.54387e-008
103
root  -17.6618 34.8116 -14.7986 -173.173 0.77803 179.112
RightUpLeg  -3.08055 -15.1059 -3.44063
RightLeg  0.940057 -2.60898 0.125452
RightFoot  6.92374 0.0392725 -0.157123
RightToes  -26.4312 -0.12073 -0.216127
Spine  -3.18933 0.545759 -0.944389
Spine1  -5.8694 1.34893 -1.04961
HEad  -67.785 -2.51889 9.47197
LeftShoulder1  -1.94126e-019 -3.10601e-018 -2.51263e-017
LeftArm  8.50392 -8.9528 -80.9199
LeftForeArm  166.943 -55.801 -164.856
LeftHand  -1.2759 -2.51342 18.8457
RightShoulder  -4.96962e-017 0 -2.36833e-017
RightArm  9.856 12.2146 81.3612
RightForeArm  -164.859 59.944 164.948
RightHand  -0.696888 -2.8871 -31.731
LeftUpLeg  -4.2931 -0.451159 2.21146
LeftLeg  4.68429 15.1494 0.261368
LeftFoot  5.48592 -0.0601861 1.67147
LeftToes  -20.5843 1.7763e-006 6.54387e-008
